<svg width="91" height="97" viewBox="0 0 91 97" fill="none" xmlns="http://www.w3.org/2000/svg">
<path d="M90.9919 36.5209C90.8195 37.2427 90.6901 37.978 90.4664 38.6917C89.4936 41.7526 86.4243 43.5978 83.5167 42.8923C81.7678 42.4663 81.0915 41.0281 81.9241 39.4217C82.1862 38.9044 82.5459 38.4435 82.9832 38.0649C84.0179 37.2101 85.3168 37.647 85.783 38.9441C84.7806 37.8993 83.8967 38.0025 83.2014 39.2398C83.0678 39.4384 82.9918 39.6705 82.9818 39.9101C82.9718 40.1498 83.0283 40.3875 83.1449 40.5966C83.2698 40.8027 83.4513 40.9679 83.6674 41.0724C83.8835 41.1769 84.1251 41.2161 84.3629 41.1855C84.8076 41.1591 85.2428 41.0443 85.6433 40.8478C86.0439 40.6512 86.4018 40.3768 86.6965 40.0403C87.0236 39.6945 87.2872 39.293 87.4753 38.8545C88.1705 37.1956 88.316 35.3553 87.8903 33.6065C87.5346 32.152 86.5429 31.262 85.1956 31.129C84.3656 33.9158 83.4224 36.6593 81.3744 38.8464C82.2987 35.2129 83.5652 31.6744 84.0179 27.9352C85.2171 28.1414 85.5944 28.6217 85.4812 29.8347C86.0201 29.8102 86.5402 29.7451 87.0657 29.7668C88.3753 29.8211 89.4532 30.3665 90.011 31.593C90.3909 32.5474 90.721 33.5211 91 34.5101L90.9919 36.5209ZM84.2389 28.3151C84.0934 29.1617 83.9694 29.9432 83.8024 30.8549C84.4356 29.5443 84.6162 28.524 84.2389 28.3151ZM81.9484 41.2126C82.1209 40.5206 82.3095 39.7663 82.5197 38.9196C82.0265 39.7039 81.6762 40.4202 81.9484 41.2126Z" fill="white"/>
<path d="M39.0321 77.4549C39.2207 77.0669 39.3743 76.7087 39.571 76.3695C39.8243 75.9272 40.2259 75.8268 40.5627 76.1714C41.1017 76.7331 41.5705 77.3518 42.0583 77.9569C42.1041 78.0166 42.0583 78.1604 42.0583 78.2581C41.8211 79.3734 41.5921 80.4914 41.3334 81.6012C41.0747 82.7111 40.7729 83.8725 40.5034 85.0094C40.4837 85.1989 40.4837 85.3899 40.5034 85.5793C40.6947 85.4138 40.8349 85.3079 40.9588 85.1831C41.8831 84.2632 42.7966 83.3325 43.729 82.418C43.8605 82.326 43.9581 82.1929 44.0068 82.0393C44.0555 81.8858 44.0526 81.7204 43.9985 81.5686C43.4218 79.5742 44.2841 78.098 45.6908 76.7548C47.0974 75.4116 48.7628 74.8851 50.6194 74.7305C51.7566 74.6328 52.7591 75.5228 53.007 76.668C53.2387 77.7534 52.5192 78.4616 52.2282 79.3381C51.9803 80.0816 51.3632 80.315 50.6275 80.3177C50.3015 80.3177 49.9727 80.4072 49.6493 80.3828C49.4126 80.3724 49.1877 80.276 49.0161 80.1115C48.9325 80.0029 49.0161 79.661 49.1239 79.5199C49.433 79.1295 49.7866 78.777 50.1775 78.4698C50.8431 77.9759 51.188 77.2866 51.4602 76.5458C51.4819 76.4662 51.4837 76.3824 51.4654 76.3019C51.447 76.2214 51.4091 76.1467 51.3551 76.0845C51.2123 75.9841 50.897 75.9027 50.8162 75.9841C49.6035 77.0831 47.9786 77.7615 47.2834 79.3897C47.0254 79.9756 46.8154 80.5819 46.6555 81.2023C46.5687 81.5673 46.5564 81.9462 46.6194 82.3161C46.6824 82.686 46.8193 83.0392 47.022 83.3542C47.4666 84.095 47.8466 84.8792 48.2777 85.6824C48.4475 85.5956 48.5768 85.544 48.69 85.4707C49.8191 84.7462 50.9374 84 52.08 83.2999C52.3216 83.1537 52.5317 82.9603 52.6979 82.731C52.864 82.5017 52.9829 82.2412 53.0474 81.9648C53.8289 79.3218 54.6966 76.7059 55.5346 74.0792C55.6855 73.6071 55.8472 73.1376 56.0493 72.5325C55.7017 72.603 55.4349 72.6383 55.1816 72.717C54.8299 72.8306 54.4496 72.8146 54.1086 72.672C53.7675 72.5293 53.4879 72.2693 53.3196 71.9382C53.166 71.5909 53.3357 71.3955 53.6834 71.3087C54.6103 71.1079 55.5319 70.8881 56.4643 70.7117C56.6572 70.6916 56.841 70.6195 56.9966 70.5029C57.1521 70.3864 57.2736 70.2298 57.3482 70.0496C57.7308 69.1541 58.1566 68.2804 58.5339 67.3795C58.5824 67.2087 58.6916 67.0618 58.8406 66.9667C58.9897 66.8717 59.1682 66.8351 59.3423 66.8639C59.4999 66.871 59.652 66.9243 59.7798 67.0174C59.9077 67.1104 60.0057 67.2391 60.0618 67.3876C60.4929 68.1718 60.3313 68.8529 60.0214 69.5774C59.9915 69.6367 59.976 69.7023 59.976 69.7687C59.976 69.8352 59.9915 69.9007 60.0214 69.96L60.5792 68.9018L60.6762 68.9343C60.5684 69.2355 60.4606 69.5367 60.3016 69.9709C61.2313 69.8135 62.0532 69.6833 62.8724 69.534C65.9579 68.9913 69.0379 68.397 72.1288 67.8842C72.8806 67.7593 73.6702 67.8652 74.4436 67.8652L74.4597 68.104L71.0401 68.5761V68.663L73.5247 68.4622L73.5678 68.6467C72.983 68.7959 72.3983 68.956 71.8108 69.0917C69.9245 69.5259 68.0597 69.9682 66.1761 70.3725C64.2413 70.7904 62.2984 71.1866 60.3555 71.5556C60.1541 71.579 59.9632 71.6591 59.805 71.7868C59.6467 71.9145 59.5275 72.0845 59.4609 72.2774C58.6767 74.2502 57.8629 76.2094 56.9601 78.1414L59.2668 72.0278L59.1402 71.9708C58.7144 73.0128 58.2671 74.0467 57.8683 75.0995C57.4694 76.1524 57.0895 77.2704 56.723 78.3802C56.3565 79.4901 55.9793 80.5294 55.6909 81.6365C55.4026 82.7436 55.2301 83.8209 55.0145 84.8656L55.1655 84.7516L55.2705 84.8222L54.6319 85.7502L55.0846 85.5793C54.9607 86.2333 54.8448 86.8357 54.7316 87.4381L54.6211 87.4218L54.6966 86.6647H54.5052C54.4675 87.4788 54.4271 88.2928 54.3894 89.1069L54.5322 89.2562C55.0469 88.8546 55.6613 88.5316 56.0655 88.0378C57.6392 86.1139 59.1564 84.1411 60.6735 82.1711C60.9011 81.8308 61.0917 81.4669 61.2421 81.0856C61.9508 79.6095 62.6353 78.1197 63.3574 76.6517C63.7509 75.8566 64.3922 75.8376 64.9581 76.5377C65.4674 77.1645 65.5725 77.8321 65.5267 78.6434C65.4135 80.6135 64.3356 82.285 63.9853 84.1682C63.7967 85.1777 63.6997 86.2034 63.4787 87.2183V85.1587H63.3547C63.3278 85.9103 63.2685 86.6593 63.2847 87.4109C63.2847 87.8994 63.7347 88.1056 64.1712 87.856C65.1574 87.2754 65.9636 86.4297 66.4995 85.4138C67.828 82.9987 69.073 80.5293 70.3772 78.1116C70.5125 77.8554 70.7401 77.6612 71.0132 77.5689C71.3904 77.4929 71.6114 77.7724 71.8728 78.098C72.6273 79.0423 72.4117 80.0138 72.2447 81.0504C71.4363 85.6824 70.0889 90.1706 68.6903 94.6453C68.1514 96.3521 66.9064 97.1608 64.95 96.9735C63.9799 96.8813 62.9667 96.8514 62.1098 96.2571C62.0101 96.1866 61.8646 96.1567 61.7945 96.0645C60.9322 94.9383 59.9217 93.8936 59.4609 92.5097C59.4477 92.4198 59.4477 92.3283 59.4609 92.2384C59.6518 92.182 59.8568 92.2009 60.0344 92.2911C60.212 92.3813 60.349 92.536 60.4175 92.7241C60.6411 93.1772 60.784 93.6928 61.0885 94.0809C61.4964 94.6114 61.989 95.0699 62.5463 95.4376C63.1041 95.7823 64.8288 95.2477 65.2411 94.6724C65.6332 94.2005 65.9389 93.662 66.1438 93.0823C66.9064 90.3226 67.5909 87.5439 68.2996 84.7706C68.3003 84.7274 68.2939 84.6843 68.2807 84.6431C67.8361 85.4572 67.4238 86.293 66.9333 87.0853C66.6963 87.4284 66.4175 87.7402 66.1034 88.0134C65.9302 88.1593 65.7424 88.2867 65.5429 88.3932C63.9422 89.3918 62.3631 89.2779 61.3391 87.5195C60.9645 86.8764 60.7624 86.1301 60.5037 85.4897C59.8947 86.3201 59.2911 87.3268 58.5096 88.1626C57.7955 88.9197 57.1434 89.7555 56.114 90.2222C55.4295 90.5342 54.8367 90.868 54.0876 90.6319C52.1393 90.0187 51.8428 88.9604 51.9318 87.1043C51.9749 86.2441 52.2228 85.3948 52.4034 84.3907C51.9129 84.6621 51.5303 84.8656 51.1422 85.0664C50.4308 85.4409 49.7248 85.8235 49.0026 86.1708C48.6038 86.3608 48.4637 86.5345 48.5499 87.0555C48.69 87.8695 49.0188 88.8763 48.1753 89.4977C47.2888 90.1435 46.4318 90.9006 45.1626 90.8165C44.0524 90.7432 43.1092 90.4556 42.3682 89.5981C41.9397 89.1042 41.8696 88.6103 42.228 88.0758C42.4638 87.6851 42.7769 87.3473 43.1477 87.0836C43.5186 86.8198 43.9393 86.6357 44.3838 86.5426C44.8441 86.4465 45.295 86.3094 45.7312 86.1329C45.8579 86.0813 46.0168 85.7937 45.9737 85.6933C45.5695 84.7571 45.1249 83.8372 44.7449 83.0204L40.1423 87.2861C40.0622 87.3505 39.9883 87.4223 39.9214 87.5005C39.474 88.1002 39.1884 88.1246 38.574 87.6769C37.7117 87.0338 37.4126 86.1518 37.4692 84.9633C36.8574 85.5277 36.3616 86.0487 35.8065 86.4856C35.018 87.1407 34.19 87.746 33.3273 88.2983C32.2872 88.9278 31.344 88.4475 30.6084 87.5548C29.4927 86.198 29.4092 84.5698 29.8458 82.9417C30.0869 82.1478 30.3953 81.3761 30.7674 80.6352C31.7428 78.5132 33.3247 76.9665 35.3161 75.7942C36.2646 75.2379 38.3692 75.8485 38.7788 77.018C38.8544 77.1686 38.939 77.3145 39.0321 77.4549ZM31.6189 85.3486L31.759 85.4165C31.8129 85.8262 31.8345 86.2441 31.9261 86.6457C31.9623 86.8083 32.0362 86.9599 32.1419 87.0881C32.2476 87.2163 32.382 87.3173 32.5341 87.383C32.6861 87.4487 32.8515 87.4771 33.0166 87.466C33.1816 87.4548 33.3417 87.4043 33.4836 87.3187C33.9048 87.0609 34.2978 86.7589 34.6559 86.4178C35.5182 85.582 36.358 84.7245 37.1754 83.8453C37.3842 83.6056 37.533 83.319 37.6093 83.0095C37.9165 81.8291 38.1886 80.6379 38.4608 79.4466C38.5266 79.237 38.5395 79.0141 38.4985 78.7981C38.3638 78.3531 38.124 77.9406 38 77.4956C37.9111 77.1781 37.8734 76.885 37.4772 76.8362C37.0811 76.7874 36.7604 76.687 36.4209 77.0804C34.9726 78.6964 33.7363 80.493 32.7426 82.4261C32.2845 83.3596 31.9881 84.3718 31.6189 85.3486ZM46.4399 86.7733C45.8422 86.8474 45.2499 86.9607 44.6668 87.1124C44.2287 87.2923 43.8127 87.5227 43.4272 87.799C42.6323 88.2847 42.6188 88.9495 43.4272 89.4841C44.5374 90.2412 45.4698 89.8721 46.4318 89.1693C46.5334 89.0584 46.6116 88.9278 46.6616 88.7856C46.7116 88.6433 46.7325 88.4923 46.7229 88.3417C46.6645 87.8129 46.57 87.2889 46.4399 86.7733ZM39.7597 85.9592L40.0777 86.027C40.6022 83.6753 41.1295 81.3235 41.6595 78.9718L41.4089 78.9148L39.7597 85.9592ZM45.8579 77.0261L48.9352 75.2379C47.7476 75.4851 46.6694 76.1078 45.8579 77.0153V77.0261ZM36.0975 75.8403C35.0681 76.0194 34.346 76.6544 33.71 77.4115L36.0975 75.8403ZM64.1712 76.3315C63.3197 76.668 63.2874 77.5499 62.9532 78.231C63.3655 77.615 63.7697 76.9664 64.1766 76.3315H64.1712ZM58.3668 68.6847L59.2911 67.1461C58.8303 67.2383 58.612 67.5748 58.3722 68.6847H58.3668Z" fill="white"/>
<path d="M49.7841 28.3992V29.2675C49.7841 35.0022 49.7841 40.7368 49.7841 46.4715C49.7759 46.7537 49.838 47.0336 49.9646 47.2855C50.2341 47.7469 50.6868 47.8934 51.1261 47.5569C51.9641 46.9301 52.654 46.2327 52.6297 45.0197C52.5597 41.5925 52.5596 38.1653 52.53 34.7381C52.53 33.6933 52.7995 33.3216 53.7696 33.0122L54.004 32.9335C55.1574 32.5726 55.1574 32.5726 55.2571 33.8616C56.3592 32.8223 57.5422 31.9621 58.9704 33.0475C60.2127 33.9783 60.369 35.3595 60.148 36.8465H57.9383C57.8832 36.5055 57.8103 36.1676 57.7201 35.8343C57.4856 35.1152 56.9817 34.7733 56.3943 34.8873C56.0743 34.9568 55.7859 35.1301 55.5732 35.3806C55.3605 35.6311 55.2352 35.9449 55.2167 36.2739V45.9993C55.2167 46.8812 55.0765 47.1444 54.2385 47.4348C53.6995 47.6247 53.2118 48.1593 52.53 47.8608C52.4788 47.8391 52.3441 48.0019 52.2605 48.0806C52.0072 48.2923 51.7647 48.5202 51.4979 48.7156C50.0805 49.7522 49.1023 49.7305 47.7388 48.626C46.9789 49.8254 45.9252 50.5988 44.4782 50.6802C43.0311 50.7616 41.8993 50.1131 40.975 49.0738C40.5184 49.7763 40.0189 50.4497 39.4794 51.09C38.9924 51.6223 38.4147 52.0625 37.7737 52.3897C36.561 52.9759 35.44 52.4467 35.0304 51.1524C34.8703 50.6154 34.7886 50.0578 34.7879 49.4971C34.7583 47.8147 34.7879 46.1323 34.7879 44.4499C34.7876 43.8269 34.7425 43.2048 34.6532 42.5884C34.4753 41.4215 33.5753 40.849 32.4354 41.1393C31.0692 41.4921 31.0153 41.5654 31.0153 42.9737C31.0153 46.3385 31.0153 49.7042 31.0153 53.0709C31.0153 54.1563 30.7215 54.4629 29.641 54.566C28.4849 54.6773 28.4849 54.6773 28.3313 53.4046L27.9002 53.8795C26.2645 55.6352 24.2084 56.2321 21.8882 56.0232C20.6244 55.9092 19.6543 55.2227 18.9051 54.216C18.1203 53.1404 17.6364 51.8725 17.5039 50.5445C17.2344 48.2461 17.4742 46.0183 18.5818 43.956C19.7971 41.7038 21.9852 40.5803 24.3431 40.9494C26.5232 41.2913 27.6954 42.8489 27.2669 45.0387C26.6229 48.3384 24.5102 50.3112 21.422 51.3477C21.1903 51.4264 20.9478 51.478 20.716 51.5404C20.8319 53.2282 22.1065 54.4873 23.7395 54.4711C24.5475 54.4773 25.3471 54.3054 26.0822 53.9674C26.8173 53.6294 27.4699 53.1336 27.9945 52.5146C28.2246 52.2354 28.3554 51.8868 28.3663 51.5241C28.396 48.0318 28.3852 44.5421 28.3879 41.0525C28.3879 39.9318 28.555 39.7201 29.6275 39.4786L30.9236 39.2073L31.0665 40.0648C31.4933 39.7577 31.9439 39.4854 32.4138 39.2507C33.2374 38.8876 34.0914 38.5988 34.9657 38.3878C35.1537 38.3389 35.3495 38.3283 35.5416 38.3566C35.7337 38.3849 35.9183 38.4515 36.0844 38.5527C36.2506 38.6538 36.395 38.7873 36.5093 38.9454C36.6235 39.1034 36.7052 39.2829 36.7497 39.4732C37.1096 40.6206 37.3481 41.803 37.4611 43.0008C37.5796 44.8596 37.4907 46.7347 37.5096 48.6043C37.4987 49.0797 37.5467 49.5546 37.6524 50.0181C37.8087 50.6232 38.3396 50.7969 38.7141 50.3193C39.5225 49.2882 40.2905 48.2543 39.9294 46.7401C39.3312 44.2301 39.9456 41.8286 40.9481 39.5329C41.3156 38.7001 41.8072 37.9287 42.4059 37.2454C43.5592 35.932 45.044 35.5413 46.7363 36.0216C46.8495 36.0541 46.9681 36.0813 47.1405 36.122C47.1405 34.4043 47.1702 32.7246 47.1405 31.0476C47.1021 30.6632 47.1882 30.2767 47.3859 29.9456C47.5835 29.6145 47.8822 29.3567 48.2373 29.2105C48.7116 28.969 49.1939 28.7058 49.7841 28.3992ZM47.1459 36.9523C46.8468 37.0202 46.6259 37.05 46.4184 37.1206C45.8351 37.3065 45.296 37.6114 44.8348 38.0161C44.3735 38.4208 43.9999 38.9168 43.7371 39.4732C42.6161 41.777 42.5218 44.1948 43.2413 46.6262C43.4457 47.1883 43.7888 47.6888 44.2383 48.0806C44.8204 48.6233 45.5507 48.6016 46.2675 48.2597C46.9411 47.9368 47.1971 47.4294 47.1621 46.6614C47.1055 45.3779 47.1459 44.0863 47.1459 42.8V36.9523ZM20.4358 50.3193C22.4837 50.048 24.4428 48.1647 24.8794 46.1079C25.0949 45.0957 25.0357 44.1161 24.4698 43.2261C23.9039 42.336 22.888 42.1596 22.1011 42.9113C21.7301 43.2696 21.4277 43.6937 21.2091 44.1622C20.3064 46.1377 20.3145 48.2136 20.4358 50.3193ZM23.0173 41.199C21.2253 41.2262 19.2204 42.8027 18.7812 44.6181C19.9291 42.9927 21.1768 41.7255 23.0173 41.199ZM52.9288 36.0433C53.0528 34.9063 53.077 33.7178 54.4217 33.2022C52.8049 33.5278 52.689 33.7693 52.9207 36.0568L52.9288 36.0433ZM42.1283 38.1409C42.7562 37.6823 43.2305 37.2752 43.7614 36.9659C44.3214 36.6721 44.8962 36.4077 45.4833 36.1735C43.9662 36.16 42.9826 36.9116 42.1203 38.1544L42.1283 38.1409ZM30.002 39.7147C28.6547 39.9291 28.3098 40.7486 28.8002 42.4283C28.9592 41.4215 28.7113 40.2411 29.9859 39.7283L30.002 39.7147ZM56.4104 33.1452L56.4508 33.308L58.0838 32.9091L58.03 32.7192L56.4104 33.1452Z" fill="white"/>
<path d="M8.26365 30.3448V50.2298C9.41661 50.3542 10.5825 50.2622 11.7021 49.9584C11.7739 49.9179 11.8355 49.8614 11.8822 49.7931C11.9289 49.7249 11.9595 49.6469 11.9716 49.5649C12.0066 49.1715 11.9716 48.7753 11.9716 48.3818C11.9716 43.4359 11.9716 38.49 11.9716 33.5441C11.9716 31.9567 12.7288 30.9364 14.2486 30.4642C14.6044 30.3557 14.9681 30.2715 15.3131 30.1359C15.8116 29.9378 15.9571 30.1359 15.9194 30.6134C15.9194 30.7166 15.9194 30.8197 15.9194 30.9255V54.8048C15.9194 56.3081 15.4101 56.9322 13.9307 57.247L11.9959 57.6568V52.1075L8.22323 52.965V54.0505C8.22323 54.9242 8.22323 55.798 8.22323 56.669C8.22323 57.8359 7.61153 58.5685 6.47165 58.8182C5.77641 58.9674 5.07578 59.1058 4.27814 59.2686V58.1832C4.27814 56.4791 4.27814 54.775 4.26467 53.0709C4.26405 52.9593 4.23797 52.8494 4.18844 52.7497C4.13891 52.6499 4.06726 52.563 3.97903 52.4956C1.46484 51.4644 0.467792 49.394 0.101309 46.8568C0.0199436 46.2435 -0.0124969 45.6247 0.0042985 45.0062C1.11481 46.6222 2.55657 47.9797 4.23233 48.9869C4.25389 48.7834 4.28623 48.6342 4.28623 48.4849C4.27006 43.5788 4.25209 38.6745 4.23233 33.772C4.22155 31.4682 5.91654 29.9893 8.26365 30.3448ZM14.6044 30.7328C13.257 30.9309 12.3057 31.8725 12.2734 33.1425C12.2222 35.0881 12.2599 37.0337 12.2599 38.9821C12.427 37.3702 12.5591 35.7584 12.5752 34.1438C12.5887 32.5699 13.0118 31.3271 14.6044 30.7328ZM4.55301 37.9129H4.62846C4.72277 36.7217 4.87637 35.5331 4.89793 34.3392C4.92218 32.6052 5.43688 31.2267 7.21001 30.5972C5.84109 30.7654 4.65541 31.7369 4.58265 32.9417C4.48025 34.5969 4.55301 36.2576 4.55301 37.9129ZM0.68876 48.4632L0.861223 48.4334C0.618697 47.6383 0.909728 46.7537 0.473182 45.9912L0.257603 46.0292L0.68876 48.4632Z" fill="white"/>
<path d="M84.635 48.2027C84.4976 48.5094 84.4222 48.6939 84.3332 48.8703C82.2745 52.984 78.9195 55.6542 74.8235 57.4777C71.1237 59.1248 67.2163 59.9199 63.2173 60.3378C57.9545 60.8805 52.7079 60.5304 47.4639 60.0664C40.7648 59.4613 34.0495 59.4966 27.4367 60.894C24.3889 61.529 21.3574 62.3919 18.5818 63.9305C17.7851 64.3241 17.0349 64.8065 16.3452 65.3687C15.6984 65.9521 15.0301 66.0797 14.219 66.0634C12.3327 66.0254 10.4464 66.0634 8.37413 66.0634C8.86484 65.5954 9.38318 65.1577 9.9263 64.7527C11.5431 63.6999 13.1411 62.6497 14.7984 61.681C20.3307 58.4573 26.4046 57.0679 32.6941 56.4682C38.7384 55.8821 44.7126 56.4004 50.6706 57.5292C58.9454 59.1304 67.4977 58.4162 75.3975 55.4642C78.1 54.5193 80.5391 52.9377 82.5116 50.8512C83.2553 50.0479 83.8697 49.166 84.635 48.2027ZM31.4006 56.8481C29.6194 56.6799 20.3091 58.9701 18.7192 60.0284L31.4006 56.8481Z" fill="white"/>
<path d="M14.2136 27.6855C16.2508 14.731 28.2963 0.389822 46.7094 0.00721019C64.7641 -0.356407 78.9249 13.0784 80.9918 30.0436C80.5645 29.8973 80.1521 29.7102 79.7603 29.4846C79.4683 29.2873 79.2569 28.9905 79.1647 28.6488C78.4177 23.8879 76.5717 19.37 73.7753 15.4582C68.084 7.52105 60.4148 2.84831 50.7084 1.83615C34.4807 0.156456 19.8375 10.6715 16.0595 26.6272C15.9356 27.1482 15.6122 27.2568 15.2161 27.3762L14.2136 27.6855ZM22.0849 11.8736C18.3182 16.1853 15.7194 21.4023 14.5397 27.0207L14.8442 27.1482C15.4446 24.3682 16.3625 21.6674 17.5793 19.0998C18.8485 16.5517 20.3573 14.1319 22.0849 11.8736ZM79.0758 26.2555C79.2671 27.2161 79.2402 28.2445 79.6147 29.1644L79.7791 29.121L79.0758 26.2555Z" fill="white"/>
<path d="M24.8955 73.2109L20.4088 74.9801C19.7405 75.2515 19.0776 75.5228 18.4012 75.7698C17.8623 75.9706 17.0539 75.4849 16.7224 74.7712C16.6911 74.6943 16.665 74.6155 16.6443 74.5351C16.267 73.3629 16.2886 73.314 17.415 72.8853C20.3792 71.7646 23.3218 70.6602 26.2591 69.5123C26.6758 69.3149 27.0509 69.0385 27.3639 68.6982C27.6697 68.3558 27.9523 67.9932 28.2101 67.6128C28.9861 66.6115 30.2688 66.5898 31.0045 67.6372C31.3306 68.1013 31.6512 68.1501 32.1471 68.066C35.5613 67.4934 38.9782 66.9263 42.387 66.3917C43.6886 66.1882 45.0036 66.0579 46.316 65.9358C46.6893 65.9439 47.0607 65.993 47.4235 66.0824C46.8495 67.3632 45.8228 67.6617 44.8015 67.9005C42.8209 68.3618 40.8106 68.7145 38.8327 69.1894C36.138 69.8352 33.4432 70.5109 30.7889 71.2653C30.0533 71.4742 29.3068 71.827 29.0077 72.7442C28.6918 73.6203 28.3182 74.4743 27.8894 75.3003C27.5498 76.0113 27.1537 76.6951 26.7953 77.3979C26.743 77.4775 26.7125 77.5696 26.7068 77.6649C26.7011 77.7602 26.7205 77.8553 26.763 77.9406C26.8196 78.098 26.9462 78.2717 26.9166 78.4101C26.8061 78.9528 26.6471 79.4955 26.5016 80.0382C26.0793 81.6105 26.0433 83.2626 26.3965 84.8521C26.701 86.3418 27.0702 87.837 27.8517 89.1612C28.2001 89.6675 28.5895 90.144 29.0158 90.5858C29.2853 90.9141 29.5709 91.2371 29.8592 91.5763C29.5035 92.0783 29.1317 92.2791 28.555 92.1542C27.6361 91.9534 26.6282 91.9562 26.0031 91.0933C25.7012 90.6563 25.449 90.1866 25.2512 89.6931C25.0464 89.2209 24.9171 88.7162 24.7581 88.2223C24.3323 86.9062 23.8392 85.6037 23.5077 84.2632C23.1655 82.8766 23.435 81.4655 23.6425 80.0735C23.8823 78.4725 24.0898 76.8661 24.3539 75.2678C24.4644 74.6301 24.6853 73.9978 24.8955 73.2109ZM16.7952 73.9083L16.9461 74.0385L23.9712 70.8881C23.8931 70.8365 23.8688 70.8121 23.8581 70.8148C21.5972 71.6994 19.3336 72.5786 17.0781 73.4822C16.9649 73.5447 16.8895 73.7617 16.7952 73.9083Z" fill="white"/>
<path d="M69.5796 25.2433V26.0574C69.5796 32.0815 69.5796 38.1056 69.5796 44.1297C69.5796 44.6914 69.4502 45.0469 68.8789 45.1717C68.6989 45.2167 68.5251 45.2842 68.3616 45.3725C67.7121 45.709 67.1328 45.7008 66.6854 45.0089C66.4833 45.1418 66.3109 45.2504 66.1465 45.3671C64.182 46.7238 61.8915 45.7524 61.5277 43.3563C61.4109 42.5348 61.3533 41.706 61.3553 40.8761C61.3337 38.1761 61.3553 35.4761 61.3553 32.7761C61.3553 31.9322 61.5789 31.6907 62.4062 31.5279C62.7727 31.4628 63.1473 31.4302 63.5003 31.3298C64.023 31.1806 64.147 31.3814 64.1416 31.8725C64.1227 35.1559 64.1227 38.4366 64.1174 41.7173C64.1174 41.9046 64.1174 42.0918 64.1174 42.279C64.1659 43.0768 64.7587 43.7281 65.4027 43.6982C66.0468 43.6684 66.8471 42.8516 66.8471 42.1705C66.8471 37.476 66.8633 32.7816 66.8471 28.0871C66.8471 27.2161 67.1355 26.6164 67.9035 26.2202C68.4343 25.9705 68.9194 25.6449 69.5796 25.2433ZM67.1705 30.1277C67.5073 28.7492 67.1004 27.0967 68.693 26.1876C68.0597 26.535 67.2405 26.6788 67.1813 27.5607C67.122 28.4426 67.1705 29.2892 67.1705 30.1467V30.1277ZM61.6436 34.4694C62.1286 33.5794 61.4091 32.3176 62.6945 31.8101C62.1745 31.8508 61.6651 31.8698 61.6463 32.5346C61.6274 33.1778 61.6436 33.7992 61.6436 34.4938V34.4694Z" fill="white"/>
<path d="M38.6899 32.5428C38.3503 33.7557 37.612 34.6349 36.4155 35.0067C35.219 35.3784 33.9687 35.3757 33.0525 34.1574C32.9151 34.4775 32.8207 34.7489 32.686 34.9986C32.4482 35.4045 32.0876 35.7231 31.657 35.9076C31.2264 36.0922 30.7484 36.1331 30.2931 36.0243C29.6113 35.8859 29.1667 35.3188 29.0778 34.3392C28.9969 33.4735 29.005 32.5971 28.9457 31.7287C28.93 31.2939 28.8649 30.8624 28.7517 30.4425C28.7044 30.2711 28.6199 30.1125 28.5041 29.9782C28.3884 29.8439 28.2443 29.7373 28.0825 29.6661C27.9207 29.5949 27.7451 29.5609 27.5686 29.5666C27.3921 29.5723 27.2191 29.6175 27.0621 29.699C26.9247 29.7668 26.833 30.0599 26.8304 30.2417C26.798 32.1954 26.7899 34.1465 26.7765 36.1003C26.7765 36.4259 26.7603 36.7841 26.3318 36.7732C25.9034 36.7624 25.3321 37.221 25.033 36.4476C24.7787 36.8062 24.4292 37.0853 24.0245 37.2528C23.6198 37.4203 23.1763 37.4695 22.7451 37.3946C21.7939 37.2807 21.263 36.6918 21.263 35.7339C21.263 34.1058 21.263 32.4587 21.263 30.8495L19.4091 30.2905L19.4441 30.0653H21.2765V27.8293C21.2765 26.4888 21.4624 26.2528 22.8664 25.9081V29.7505L23.6479 29.8021V30.4913L22.8718 30.6189C22.8718 31.8888 22.8718 33.1479 22.8718 34.4179C22.8569 34.8957 22.8677 35.374 22.9041 35.8506C22.9984 36.6864 23.5967 36.936 24.2515 36.3933C24.5401 36.1554 24.7696 35.853 24.9216 35.51C25.0737 35.167 25.1441 34.7931 25.1273 34.4179C25.1273 32.247 25.1596 30.0572 25.1704 27.8755C25.1704 26.5187 25.3617 26.2473 26.7711 25.7806V29.1888C27.2777 29.0206 27.6954 28.8578 28.1184 28.7465C29.4362 28.4019 30.3012 28.8985 30.5167 30.239C30.6217 31.1651 30.6765 32.0964 30.6811 33.0285C30.7081 33.5712 30.6811 34.1139 30.7674 34.6404C30.8024 34.8683 30.991 35.2075 31.1662 35.2482C31.3039 35.266 31.4438 35.2542 31.5767 35.2135C31.7096 35.1728 31.8323 35.1042 31.9369 35.0121C32.2069 34.7687 32.4049 34.4549 32.509 34.1054C32.6132 33.7558 32.6194 33.3841 32.527 33.0312C32.1262 31.6383 32.2678 30.1438 32.9231 28.8523C33.1641 28.317 33.5628 27.8691 34.0651 27.5696C34.5674 27.2701 35.149 27.1334 35.731 27.1781C37.0784 27.2269 37.8249 28.1658 37.5365 29.4819C37.1916 31.053 36.1892 32.0462 34.7232 32.6269C34.5346 32.7029 34.3352 32.7517 34.1439 32.8141C34.1406 33.0422 34.1875 33.2682 34.2813 33.4758C34.3751 33.6834 34.5134 33.8676 34.6863 34.0149C34.8592 34.1623 35.0624 34.2693 35.2812 34.3282C35.5001 34.387 35.7292 34.3964 35.952 34.3554C36.5191 34.2958 37.0636 34.1 37.54 33.7846C38.0164 33.4692 38.4107 33.0434 38.6899 32.5428ZM33.9552 32.1737C35.5721 31.688 36.5233 30.4561 36.3454 29.1698C36.2781 28.6678 36.1299 28.1577 35.5505 28.0328C34.9711 27.908 34.6397 28.3476 34.416 28.7981C33.8986 29.8564 33.8582 30.9716 33.9552 32.1737ZM25.3968 29.0613C25.5126 28.1767 25.6258 27.3192 25.7282 26.5431C25.2755 26.8443 25.2378 27.0505 25.3968 29.0613ZM22.2682 26.3694C21.4598 26.6137 21.2603 27.2351 21.5837 28.5186C21.7535 27.7805 21.3439 26.8714 22.2682 26.3694Z" fill="white"/>
<path d="M69.8491 36.9116C70.2506 36.2875 70.4661 35.62 70.9269 35.2998C72.1881 34.407 72.6165 33.156 72.789 31.7341C72.789 31.6907 72.789 31.65 72.8025 31.6093C72.9022 29.9812 73.2148 29.5117 75.1523 29.3164C75.4541 29.2838 75.764 29.3164 76.1547 29.3164C75.6885 31.7721 75.1658 34.1601 72.9857 35.7611C72.9857 35.7611 72.9857 35.8316 73.0234 35.8425C74.3843 36.4286 74.8693 37.4923 74.8047 38.9386C74.7859 39.8313 74.8264 40.7243 74.9259 41.6115C74.9987 42.4256 75.4406 42.781 76.1844 42.5151C76.7233 42.3197 77.3647 41.9724 77.6395 41.4867C78.1623 40.5912 78.4479 39.5628 78.8414 38.5859C78.8824 38.4297 78.9384 38.278 79.0084 38.1327C79.3067 39.0495 79.3189 40.0363 79.0435 40.9602C78.7123 42.1312 77.9838 43.1481 76.9847 43.8339C74.8451 45.3698 72.4818 44.3223 72.1908 41.682C72.1382 40.8553 72.1382 40.0259 72.1908 39.1991C72.2069 37.704 71.5656 37.0093 69.8491 36.9116ZM73.0693 32.3881C73.4708 31.4736 73.2714 30.3936 74.2334 29.8346C73.1717 30.0029 73.1366 30.6704 73.0693 32.3881Z" fill="white"/>
<path d="M62.7942 29.7017C62.6091 29.706 62.4249 29.6733 62.2524 29.6055C62.0799 29.5378 61.9224 29.4362 61.7891 29.3068C61.6558 29.1773 61.5493 29.0225 61.4758 28.8514C61.4022 28.6802 61.3631 28.4961 61.3606 28.3096C61.3542 28.1178 61.3859 27.9267 61.4539 27.7474C61.5219 27.5681 61.6249 27.4044 61.7567 27.2658C61.8886 27.1272 62.0466 27.0166 62.2216 26.9405C62.3965 26.8644 62.5848 26.8243 62.7754 26.8226C63.1604 26.8248 63.5288 26.9805 63.8001 27.2556C64.0713 27.5308 64.2232 27.9029 64.2224 28.2906C64.2147 28.6671 64.0609 29.0256 63.794 29.2893C63.527 29.553 63.1682 29.7011 62.7942 29.7017Z" fill="white"/>
</svg>
